<svg id="Layer_1" data-name="Layer 1" xmlns="http://www.w3.org/2000/svg" viewBox="0 0 2674.87 967.28"><defs><style>.cls-1{fill:#397ec1;}.cls-2{fill:#e83a7a;}.cls-3{fill:#704fa0;}.cls-4{fill:#64cae1;}.cls-5{fill:#9c59a4;}</style></defs><title>osm-logo_color_rgb</title><path d="M1459.74,1460.74,1380,1636.65a36.5,36.5,0,0,1-8.55,8.55c-3.32,2.39-6.39,3.56-9.26,3.56h-4.27c-2.83,0-6-1.17-9.61-3.56a25.66,25.66,0,0,1-8.2-8.55l-79.76-175.91v381.73a21.19,21.19,0,0,1-5.35,14.59q-5.32,6.08-15.29,6.06-7.84,0-14.26-6.06a19.36,19.36,0,0,1-6.39-14.59V1368.14a19.35,19.35,0,0,1,6.39-14.58c4.29-4,9-6.06,14.26-6.06q15,0,20.64,15.67l100.42,218.63,99-218.63q5.7-15.67,19.94-15.67a20.64,20.64,0,0,1,20.64,20.64v474.33a20.64,20.64,0,0,1-20.64,20.66q-9.26,0-14.59-6.06a21.27,21.27,0,0,1-5.35-14.59Z" transform="translate(-79.91 -933.74)"/><path d="M1909.28,1836.77a11.35,11.35,0,0,0,.35,3.2,8.08,8.08,0,0,1,.36,2.5c0,1,.24,1.42.71,1.42a19.15,19.15,0,0,1-5.33,13.53q-5.34,5.7-15.32,5.7a21.38,21.38,0,0,1-12.46-4.27,17.81,17.81,0,0,1-7.49-11.4l-39.16-156.69H1705.6l-39.18,156.69a21.7,21.7,0,0,1-7.84,11.4,19.84,19.84,0,0,1-12.11,4.27q-10,0-15.31-6.41a21.7,21.7,0,0,1-5.35-14.25v-3.56L1749,1362.45q5.67-15,20.66-15c3.8,0,7.34,1.55,10.67,4.64a25.78,25.78,0,0,1,7.14,11.75v-.71Zm-89.73-186.59-51.27-214.37-52,214.37Z" transform="translate(-79.91 -933.74)"/><path d="M2042.52,1371q0-7.83,6.39-14.25t14.26-6.43q12.82,0,20.64,18.52l201.57,392.42V1371q0-7.83,6-14.25a19.33,19.33,0,0,1,14.59-6.43q7.84,0,13.88,6.43T2326,1371v474.32q0,13.53-5.7,17.1c-3.8,2.36-6.65,3.56-8.55,3.56-9.51,0-15.91-1.42-19.23-4.27s-5.46-5.46-6.4-7.84l-203-393.84v385.29c0,6.66-1.9,11.74-5.7,15.32a20.07,20.07,0,0,1-14.23,5.33,21.86,21.86,0,0,1-14.26-5.33c-4.26-3.58-6.39-8.66-6.39-15.32Z" transform="translate(-79.91 -933.74)"/><path d="M2469.9,1492.78a149.71,149.71,0,0,1,10.32-55.91,132.59,132.59,0,0,1,29.55-45.22,144.94,144.94,0,0,1,45.59-30.61q26.31-11.42,58.39-11.41a133.19,133.19,0,0,1,54.83,11.41,147.27,147.27,0,0,1,44.88,30.61,140.5,140.5,0,0,1,30.26,45.57,144.2,144.2,0,0,1,11,56.27v229.33a139.59,139.59,0,0,1-11,55.18,140.83,140.83,0,0,1-75.14,75.5,137.12,137.12,0,0,1-54.83,11,139.72,139.72,0,0,1-55.2-11,153.26,153.26,0,0,1-45.94-29.92,141.08,141.08,0,0,1-31.34-43.45,122.76,122.76,0,0,1-11.38-52.33Zm41.3,231.47a88.41,88.41,0,0,0,8.55,38.1,107.5,107.5,0,0,0,22.43,31.69,104,104,0,0,0,32.4,21.37,97.76,97.76,0,0,0,38.46,7.84,91.69,91.69,0,0,0,38.1-8.2,110.12,110.12,0,0,0,32.05-21.72,108.09,108.09,0,0,0,22.43-31.69,88.42,88.42,0,0,0,8.55-38.1V1492.78a105.74,105.74,0,0,0-7.84-41,103.12,103.12,0,0,0-21.35-32.75,97.45,97.45,0,0,0-32.07-21.73,101.49,101.49,0,0,0-39.87-7.82,97.74,97.74,0,0,0-39.89,8.17,103.39,103.39,0,0,0-54.12,55.56,101.84,101.84,0,0,0-7.84,39.53Z" transform="translate(-79.91 -933.74)"/><path d="M1369.46,1108.69q0,43.55-19.06,67.32t-53.52,23.77q-34.1,0-53.5-23.77t-19.52-66.86V1060.2q0-43.4,19.3-67.42t53.44-24q34.57,0,53.72,24.08t19.14,67.8Zm-17.74-48.8q0-36.9-14.2-55.43t-40.92-18.54q-25.81,0-40.32,18.16t-14.83,54.26v50.35q0,37.06,14.67,55.67t40.76,18.6q26.88,0,40.85-18.54t14-55.73Z" transform="translate(-79.91 -933.74)"/><path d="M1526.81,1121q0,38.58-13.44,58.66t-40.14,20.09q-29,0-43.39-23.17v84.32h-17V1029.62h15.75l.78,22.86q14.84-25.93,43.39-25.93,27,0,40.46,19.14t13.58,58.52Zm-17.13-15.67q0-32.08-10-47.2t-31.1-15.12q-27.19,0-38.77,27.62v87.91q11.59,25.14,39.08,25.14,20.68,0,30.63-15.12t10.13-46.59Z" transform="translate(-79.91 -933.74)"/><path d="M1621.79,1199.79q-29.54,0-46.17-19.31t-17-55v-20.39q0-36.76,16.07-57.67t44.16-20.93q27.19,0,41.46,17.74t14.59,54.37v16.05h-99.28v9.42q0,28.71,12.27,44.32t34.67,15.59q24.69,0,40-18.08l8.94,11.44q-16.36,22.37-49.7,22.38m-2.94-157.2q-20.25,0-31.12,14.28t-12,41.79h82v-4.5q-1.23-51.57-38.91-51.57" transform="translate(-79.91 -933.74)"/><path d="M1727.7,1029.62l.46,26.56a62.14,62.14,0,0,1,18.93-21.62,44.6,44.6,0,0,1,26.17-8q43.71,0,44.78,58.22V1196.7h-17V1086.61q-.17-22.39-7.87-33.05t-24.27-10.65q-13.42,0-24.16,10.11t-16.29,27.72v116h-17.14V1029.62Z" transform="translate(-79.91 -933.74)"/><path d="M2044,1141.42q0-18.83-10.73-29.65t-40.08-20.69q-29.32-9.88-43.09-22.08-18-15.91-18-42,0-25.79,17.74-42t45.86-16.21q28.73,0,46.95,18.84t18.22,48.48H2043q0-22.7-12.73-36.68t-34.68-14q-21.3,0-33.59,11.51t-12.27,29.73q0,17,11.59,27.8t36.9,19.22q25.33,8.43,38.29,17.46t19.15,21.23q6.17,12.21,6.19,28.71,0,26.4-17.84,42.55t-47.19,16.15a79.65,79.65,0,0,1-36-8.12,60.64,60.64,0,0,1-25.48-23.32q-9.19-15.2-9.18-35.9h17.6q0,23.79,14.36,37.37t38.75,13.58q21.32,0,34.22-11.43t12.89-30.57" transform="translate(-79.91 -933.74)"/><path d="M2091.66,1104.67q0-36.14,16.37-57.13t44.64-21q28.4,0,44.69,20.69t16.45,57V1122q0,36.76-16.45,57.3T2153,1199.79q-27.95,0-44.32-20.07t-17-55.28Zm17.3,17.21q0,28.85,11.65,45.35t32.35,16.51q21.16,0,32.34-15.89t11.37-45.51v-17.73q0-28.85-11.74-45.43t-32.26-16.59q-19.92,0-31.66,16.21t-12,44.58Z" transform="translate(-79.91 -933.74)"/><path d="M2342.89,1176.78q-14.22,23-44,23-22.7,0-34.27-15.77t-11.75-46.32v-108.1h17v107.62q0,22.7,8,34.44t23.14,11.73q32.46,0,41.54-31.5v-122.3h17.3V1196.7h-16.67Z" transform="translate(-79.91 -933.74)"/><path d="M2471.07,1045.68a64.77,64.77,0,0,0-10.81-1.08,32.3,32.3,0,0,0-23.85,9.72q-9.66,9.74-13.68,27v115.36h-17.14V1029.62h16.84l.3,25q12.2-28.11,38.31-28.1,6.79,0,10.35,2Z" transform="translate(-79.91 -933.74)"/><path d="M2551,1183.73q17.9,0,27.48-10t10.35-28.78h16.53q-1.23,25.64-16.38,40.24t-38,14.59q-29.82,0-45-19.07t-15.51-56.61v-20.37q0-38.3,15.21-57.76t45.16-19.45q24.86,0,39.22,15.69T2605.4,1086h-16.53q-.78-20.68-10.49-32t-27.5-11.37q-22.22,0-32.66,15t-10.42,46v19q0,32.08,10.49,46.66t32.73,14.58" transform="translate(-79.91 -933.74)"/><path d="M2696.82,1199.79q-29.54,0-46.17-19.31t-17-55v-20.39q0-36.76,16.07-57.67t44.16-20.93q27.19,0,41.46,17.74t14.59,54.37v16.05h-99.28v9.42q0,28.71,12.27,44.32t34.67,15.59q24.69,0,40-18.08l8.94,11.44q-16.36,22.37-49.7,22.38m-2.94-157.2q-20.25,0-31.12,14.28t-12,41.79h82v-4.5q-1.23-51.57-38.91-51.57" transform="translate(-79.91 -933.74)"/><path class="cls-1" d="M684.83,976.31c14.21,2.11,28.57,3.61,42.63,6.51,12.88,2.66,25.55,6.55,38.15,10.43,10.67,3.29,21.29,6.87,31.58,11.13a350.93,350.93,0,0,1,63.09,34,368.08,368.08,0,0,1,103.84,106.12,361.45,361.45,0,0,1,44.12,98,345.89,345.89,0,0,1,11.86,66.59,370.86,370.86,0,0,1-2.44,79.72,12.81,12.81,0,0,0,0,1.74c-4.43,26.34-11.16,52-21.24,76.82a337,337,0,0,1-41.82,74.71,331.6,331.6,0,0,1-51.4,54.69,317.32,317.32,0,0,1-61.15,41c-26.05,13.31-53.28,23.39-82.2,29a323,323,0,0,1-59.07,6.22,391.45,391.45,0,0,1-41.71-2.45,254.47,254.47,0,0,1-59.18-13.23c-15-5.3-29.81-11.48-44.43-17.86-7-3.07-13.5-7.5-20.21-11.3,7.14,1.55,13.9-.24,20.7-2.15,34.16-9.58,66.23-24,97.24-41,35.79-19.64,70-41.68,100.89-68.46,3.09-2.68,54.64-59,55.88-60.9,5.76-8.77,12.09-17.25,17-26.5,8.17-15.51,16.19-31.2,22.81-47.41,7.09-17.41,11.67-35.73,15-54.31,3.18-17.87,5.45-35.87,5.19-54-.22-15.31-1.61-30.63-3.29-45.87-2.33-21.21-7.72-41.79-14.74-61.94a325.43,325.43,0,0,0-26.8-58c-10.38-17.65-21.91-34.57-35.76-49.61a501.78,501.78,0,0,0-37.94-37.06c-10.56-9.26-22.19-17.38-33.89-25.22-10.49-7-21.73-12.95-32.64-19.36" transform="translate(-79.91 -933.74)"/><path class="cls-2" d="M213,1694.87c-12.52-12.68-25.48-24.95-37.45-38.12-15.27-16.78-28-35.52-39.37-55.13a369,369,0,0,1-42.88-113.7,374,374,0,0,1-6.85-62.6,363,363,0,0,1,8.15-86.7,346.93,346.93,0,0,1,21.75-66.81A351.38,351.38,0,0,1,183.89,1170c1.68-1.77,3.2-3.7,4.8-5.56.35-.73.68-1.44,1-2.15l0,.06a19,19,0,0,0,3.32-1.9c10.24-8.86,19.94-18.41,30.72-26.56,32.42-24.49,67.75-43.56,106.93-55.08,23.21-6.84,46.76-11.75,70.95-13.31,16-1,32-1.52,48-.22a323.28,323.28,0,0,1,63.76,11.18c20.85,6,41.33,13.17,60.09,24.41,13.61,8.17,27.75,15.62,40.63,24.82a296.3,296.3,0,0,1,79.49,84.83c9.28,14.83,16.75,30.79,25,46.24-2.88-2.26-5.48-5.22-8.74-6.66-7.34-3.25-15-6-22.59-8.5-39.13-13-79.54-19.69-120.47-22.67-25.34-1.85-50.86-1.66-76.31-1.87-8.28-.06-16.56,1.55-24.85,2.41-12,2-24.22,3.28-36,6.14-16.46,4-32.72,8.86-48.9,13.91-6.65,2.06-12.84,5.56-19.23,8.41a33,33,0,0,0-4.5,1.43A315.08,315.08,0,0,0,240.15,1345a305.23,305.23,0,0,0-38.54,67.32c-5.71,13.79-10.61,28-15,42.23a151.77,151.77,0,0,0-5.07,26.15c-2.22,17.95-4.48,35.93-5.51,54-.65,11.41.33,23,1.55,34.44,1.52,14.21,3.37,28.48,6.27,42.45a314.4,314.4,0,0,0,22.81,68.27c2.28,4.94,4.24,10,6.35,15" transform="translate(-79.91 -933.74)"/><path class="cls-3" d="M535.23,1628c6.73,3.82,13.17,8.23,20.21,11.3,14.63,6.38,29.39,12.55,44.45,17.87a254.87,254.87,0,0,0,59.18,13.22,390.9,390.9,0,0,0,41.69,2.45,323.32,323.32,0,0,0,59.09-6.22c28.9-5.56,56.13-15.64,82.18-29a316.47,316.47,0,0,0,61.16-41A332.13,332.13,0,0,0,954.59,1542a336.69,336.69,0,0,0,41.82-74.71c10.08-24.79,16.81-50.48,21.24-76.82,2,10.73,4.15,21.43,5.81,32.21a204.25,204.25,0,0,1,2.55,24.22c.55,16.35,1.33,32.77.46,49.07a316.06,316.06,0,0,1-5.79,46.62c-3.53,17.25-8.55,34.25-13.8,51.1a264.61,264.61,0,0,1-13.87,36.2c-8.8,18.24-18.06,36.31-30.31,52.62-7.38,9.81-14.45,19.85-21.91,29.6-2.85,3.72-6.38,6.92-9.54,10.42-2.88,3.17-5.43,6.71-8.58,9.58-10.24,9.29-20.66,18.39-31.07,27.5-13.15,11.49-27.83,20.82-42.69,29.92a314.83,314.83,0,0,1-89.45,37.77c-10.84,2.68-21.83,4.72-32.75,7-4.13.81-8.23,2.06-12.39,2.36-14.45,1.06-28.92,2.23-43.4,2.5a228.87,228.87,0,0,1-30.52-1.63c-13.93-1.6-28-3-41.6-6.33-18.92-4.72-37.86-10-55.92-17.29-16.57-6.65-32.54-15.32-47.77-24.72a382.22,382.22,0,0,1-43.2-31.31c-17.41-14.45-32.39-31.42-45.87-49.67-19.77-26.78-35.54-55.64-45.71-87.34-3.91-12.16-7.22-24.55-10-37a246.49,246.49,0,0,1-6.39-58.54c.36-19.07,1.87-38.15,3.42-57.17.55-6.79,2.74-13.46,4.18-20.18.92,3.77,1.12,7.91,2.91,11.19a168.31,168.31,0,0,0,12.54,19.63A532.31,532.31,0,0,0,442.88,1561c11.18,9.86,22.19,20,34.1,29,14.67,11,30.14,21.05,45.37,31.34,3.56,2.41,7.53,4.18,11.32,6.25l1.44.48Z" transform="translate(-79.91 -933.74)"/><path class="cls-4" d="M718.63,1256.77c-8.29-15.45-15.75-31.42-25-46.24a296.51,296.51,0,0,0-79.48-84.84c-12.88-9.2-27-16.64-40.65-24.8-18.76-11.24-39.22-18.39-60.09-24.41a321.77,321.77,0,0,0-63.76-11.19c-16.05-1.28-32-.81-48,.22-24.17,1.58-47.72,6.49-70.95,13.33-39.18,11.52-74.49,30.6-106.93,55.08-10.78,8.14-20.48,17.7-30.72,26.56a20.7,20.7,0,0,1-3.32,1.9c4-8.58,7.76-17.29,12.08-25.69a359,359,0,0,1,65.75-89.56A369.78,369.78,0,0,1,462.77,945a357.85,357.85,0,0,1,83.94-5c29.13,1.57,57.84,6.38,85.49,15.83,15.91,5.45,31.36,12.17,47,18.33l5.62,2.17c10.91,6.41,22.14,12.33,32.64,19.36,11.7,7.82,23.33,16,33.87,25.22a499.07,499.07,0,0,1,38,37.06c13.68,14.83,25.07,31.52,35.35,48.93a324.66,324.66,0,0,1,26.85,57.6c7.19,20.48,12.74,41.39,15.1,63,1.68,15.23,3.07,30.57,3.29,45.87.25,18.11-2,36.11-5.19,54-3.31,18.58-7.9,36.9-15,54.31-6.6,16.23-14.63,31.91-22.79,47.42-4.88,9.24-11.21,17.71-17,26.48-.62.95-5,6.73-9.53,12.52s-36.2,37.5-37,38.45c0-8.17-2.85-106.42-7.39-129.37-6-27.64-12.33-55.16-21.86-81.82-4.53-12.66-10-25-15-37.48-.21-.36-.4-.73-.6-1.09Z" transform="translate(-79.91 -933.74)"/><path class="cls-5" d="M213,1694.87s0,0,0,0l0,0Z" transform="translate(-79.91 -933.74)"/><path class="cls-5" d="M714.31,1836.73c-14.45,1.06-28.92,2.22-43.4,2.5a228.73,228.73,0,0,1-30.52-1.63c-13.95-1.6-28-3-41.61-6.33-18.92-4.72-37.86-10.05-55.92-17.29-16.57-6.66-32.53-15.32-47.76-24.73a385.72,385.72,0,0,1-43.21-31.31c-17.41-14.45-32.39-31.42-45.87-49.69-19.77-26.77-35.52-55.62-45.71-87.34-3.89-12.16-7.2-24.53-10-37a244.91,244.91,0,0,1-6.39-58.55c.35-19.07,1.85-38.13,3.42-57.16.55-6.79,2.74-13.46,4.18-20.18,1.82-8.1,3.37-16.27,5.52-24.28,7.61-28.46,18.17-55.86,30-82.82.4-.9.63-1.88.95-2.82.28-.49.62-1,.85-1.47,13.38-29.27,27.76-58,46.73-84.16,8.74-12,15.7-26,30.12-33-12,2-24.22,3.28-36,6.14-16.46,4-32.73,8.86-48.91,13.91-6.63,2.07-12.82,5.57-19.23,8.41a32.79,32.79,0,0,0-4.48,1.42A315.13,315.13,0,0,0,240.14,1345a305.1,305.1,0,0,0-38.54,67.31c-5.7,13.79-10.59,28-15,42.23a153.34,153.34,0,0,0-5.08,26.15c-2.22,17.95-4.46,35.93-5.49,54-.65,11.43.33,23,1.55,34.44,1.52,14.23,3.37,28.48,6.27,42.47a314.94,314.94,0,0,0,22.79,68.27c2.28,4.91,4.24,10,6.33,15l.87.87c6.85,11.16,13.44,22.49,20.61,33.45a336.3,336.3,0,0,0,60.83,69.51,364.88,364.88,0,0,0,191.63,86.54c21,2.75,42.12,4.05,63.3,2.69,13.77-.87,27.61-1.82,41.25-3.78,22.76-3.28,44.94-9.23,66.66-16.79,23.4-8.15,45.56-18.95,67.13-31,.63-.35,1-1.27,1.44-1.92-4.12.82-8.22,2.07-12.38,2.37" transform="translate(-79.91 -933.74)"/><path d="M1029.11,1454.42l-.22-6.08a208,208,0,0,0-2.56-24.44c-1-6.27-2.14-12.57-3.29-18.76a11.45,11.45,0,0,0-1.9-19.53,372.22,372.22,0,0,0,1.84-75.14,350.88,350.88,0,0,0-10-59.25,11.44,11.44,0,0,0-5.75-20.23,364.32,364.32,0,0,0-40.51-85.81,371.25,371.25,0,0,0-104.28-106.58,354.61,354.61,0,0,0-63.38-34.16c-9.09-3.75-19.15-7.31-31.72-11.18s-25.31-7.79-38.29-10.46c-8.42-1.74-17-3-25.45-4.13a11.46,11.46,0,0,0-20.1-3.55l-2.34-.9c-4.86-1.9-9.7-3.88-14.55-5.84-10.57-4.29-21.5-8.74-32.5-12.49a288.63,288.63,0,0,0-40.68-10.62A11.5,11.5,0,0,0,571,941.89c-7.39-.85-15-1.49-22.75-1.9a360.75,360.75,0,0,0-84.31,5A371.58,371.58,0,0,0,267.8,1047.58a362.09,362.09,0,0,0-66.05,90c-2.33,4.53-4.48,9.16-6.58,13.75a11.37,11.37,0,0,0-2.87-.41,11.53,11.53,0,0,0-8.18,19.66,354.57,354.57,0,0,0-67.73,102.1,350.32,350.32,0,0,0-21.84,67.13,366.6,366.6,0,0,0-8.2,87.06c.24,8.21.79,16.3,1.5,24.3a11.47,11.47,0,0,0,2.6,22.33c.82,5.49,1.74,10.92,2.8,16.26a372.2,372.2,0,0,0,43.05,114.16c12.82,22.11,25.77,40.24,39.57,55.42,8.33,9.15,17.25,18,25.88,26.56,1.47,1.47,2.93,2.94,4.4,4.4a11.52,11.52,0,0,0,9.4,18.2,11.68,11.68,0,0,0,4.27-.84c.14.25.3.51.46.76,4.57,7.6,9.32,15.43,14.26,23a339.33,339.33,0,0,0,61.12,69.84,365.81,365.81,0,0,0,92.85,58.93,11.3,11.3,0,0,0-.24,2.34,11.51,11.51,0,0,0,21.26,6.16,364.38,364.38,0,0,0,78.59,19.47c3.39.46,6.7.82,10,1.17,0,.06,0,.13,0,.19A11.51,11.51,0,0,0,521,1891c4.51.19,9,.33,13.31.33,5.94,0,11.73-.19,17.41-.55,14.67-.93,27.94-1.87,41.36-3.8,21.27-3.07,43.17-8.58,67-16.86,18.87-6.57,37.93-15.15,59.34-26.74a11.52,11.52,0,0,0,19.49-8.29c7.31-1.49,14.86-3,22.24-4.86A318.37,318.37,0,0,0,851,1792.34c14.34-8.78,29.46-18.35,42.93-30.11,10.23-8.93,20.82-18.17,31.06-27.48a63.77,63.77,0,0,0,5.79-6.32c1-1.14,1.92-2.3,2.91-3.4s2.25-2.37,3.39-3.55a79.91,79.91,0,0,0,6.25-7c3.64-4.76,7.17-9.59,10.7-14.42a11.49,11.49,0,0,0,13.58-18.47c11.65-16.26,20.59-34,28.1-49.59a266.9,266.9,0,0,0,14-36.42c5.07-16.27,10.26-33.76,13.83-51.24a317.87,317.87,0,0,0,5.83-46.85c.76-14.36.25-29-.24-43.1M843.61,1622.7a16.29,16.29,0,0,0-15.62,21.5q-10.64,4.87-21.2,8.8a16.43,16.43,0,0,0-30.82,8,13.62,13.62,0,0,0,.17,1.61c-5.14,1.28-10.27,2.48-15.43,3.47a321.16,321.16,0,0,1-56,6.09,16.38,16.38,0,0,0-14.4-14.59v-75.68a16.36,16.36,0,0,0,13.17-22.9,517.61,517.61,0,0,0,42.18-30.68,29.62,29.62,0,0,0,51.24-16l156.53,12.16a16.36,16.36,0,0,0,5.24,11.41c-1.52,2.17-3.06,4.32-4.62,6.43a329.86,329.86,0,0,1-51,54.33,318,318,0,0,1-46.25,32.78,16.46,16.46,0,0,0-13.19-6.68M727.34,1823.57a11.53,11.53,0,0,0-11.54,11.52c0,.27.06.52.08.78l-.46.06-4.27.32c-12.77.95-26,1.93-39,2.18-5.63.09-11.59-.1-17.87-.52-4-.27-8.06-.62-12.38-1.11l-4.61-.52c-12.19-1.36-24.79-2.79-36.72-5.76-15.72-3.93-36.26-9.42-55.62-17.19-14.72-5.9-30.23-13.95-47.42-24.55-2.58-1.6-5.18-3.31-7.77-5a16.42,16.42,0,0,0,2-7.65,16.1,16.1,0,0,0-1-5.33l183.78-88.15a16.39,16.39,0,0,0,30.17-6.66,327.86,327.86,0,0,0,56.72-6.16c5.19-1,10.35-2.2,15.51-3.5a16.43,16.43,0,0,0,8,9.26l-55.42,148.21a12.64,12.64,0,0,0-2.2-.21M226.93,1695.43a11.52,11.52,0,0,0-2-5.22L340.32,1597a16.39,16.39,0,0,0,11.54,4.73,17.21,17.21,0,0,0,2-.21c1.92,7.33,4,14.47,6.16,21.27,9.16,28.57,23,55.59,42.14,82.45a16.35,16.35,0,0,0-4.8,8.37Zm176.3-626.23c13-.86,30.2-1.65,47.72-.24,7.65.62,15,1.46,22.13,2.45,0,.17,0,.35,0,.52a16.44,16.44,0,0,0,31.9,5.65c3.15.79,6.27,1.6,9.35,2.49,18.33,5.3,39.73,12.31,59.58,24.2,3.07,1.84,6.17,3.62,9.28,5.41a16.23,16.23,0,0,0,1.35,14.86L489,1201.14a29.64,29.64,0,0,0-51.56,20,26.94,26.94,0,0,0,.14,2.79c-2.33.46-4.62.95-6.92,1.5-16.83,4.07-33.48,9.1-49,13.93a96.81,96.81,0,0,0-13,5.46,16.39,16.39,0,0,0-11.63-8l6.25-148.48A16.42,16.42,0,0,0,378.61,1072c8.39-1.31,16.57-2.23,24.61-2.75M576.64,955.47a10.84,10.84,0,0,0,7.25,1.16l67.48,192.62a16.13,16.13,0,0,0-3.59,2.39,295.09,295.09,0,0,0-31.21-25.77c-1.19-.84-2.41-1.63-3.59-2.44a16.43,16.43,0,0,0-28-17.08c-3.06-1.77-6.13-3.53-9.15-5.35-20.21-12.11-41.92-19.22-60.47-24.58-3.15-.9-6.33-1.74-9.54-2.55a15.35,15.35,0,0,0,.19-1.93,16.41,16.41,0,0,0-7-13.42Zm231.94,129.86c.9,1.27,1.8,2.53,2.69,3.85.63.9,1.25,1.88,1.88,2.82.81,1.22,1.63,2.44,2.45,3.7.7,1.08,1.39,2.2,2.09,3.31s1.52,2.36,2.26,3.59,1.5,2.48,2.25,3.74,1.38,2.25,2.06,3.4c1.58,2.68,3,5.41,4.53,8.12,1.09,2,2.23,3.91,3.28,5.89,1.27,2.41,2.41,4.86,3.61,7.3s2.37,4.67,3.48,7c.82,1.8,1.57,3.62,2.36,5.43,1.35,3.05,2.72,6.09,4,9.18.66,1.65,1.23,3.32,1.87,5,1.28,3.29,2.56,6.59,3.74,9.91a.23.23,0,0,0,0,.1,16.43,16.43,0,0,0,7.44,31.1,16,16,0,0,0,1.76-.17c.06.25.14.52.21.79.54,2.25,1,4.48,1.5,6.7.06.32.14.63.21.95.51,2.37.95,4.72,1.36,7,0,.16.06.32.09.49.43,2.41.81,4.78,1.16,7.16a1.37,1.37,0,0,0,0,.25c.35,2.45.66,4.89.93,7.3,1.49,13.57,3,29.6,3.26,45.65.19,13.61-1,28.33-3.85,45.87-.4,2.5-.84,5.06-1.3,7.69-1.38,7.74-2.91,15-4.64,22-.24,0-.47-.08-.73-.08a16.46,16.46,0,0,0-16.43,16l-67.62,8.21a16.2,16.2,0,0,0-18.92-12.33c-4.76-21.12-10.53-44-18.39-66.05-1.27-3.51-2.63-7-4-10.5a29.62,29.62,0,0,0-.08-53.76l58.31-150.61a16,16,0,0,0,4.12.59,16.3,16.3,0,0,0,8.69-2.55c.89,1.19,1.79,2.36,2.66,3.59.55.76,1.11,1.58,1.66,2.36M601.87,1656.68c-10.8-3.82-21.37-8.06-31.17-12.19a29.44,29.44,0,0,0,1.36-19.8c26.59-8.64,54-20.74,83.34-36.83,7.08-3.89,13.85-7.79,20.48-11.7a16.36,16.36,0,0,0,10.65,5.71v75.69a16.42,16.42,0,0,0-14.28,13.31c-4-.35-7.88-.7-11.7-1.09a253.22,253.22,0,0,1-58.69-13.11m86.58-107.57A16.37,16.37,0,0,0,673.78,1573c-6.55,3.85-13.23,7.71-20.21,11.54-29.14,16-56.35,28-82.74,36.57a29.66,29.66,0,0,0-52.35-4.31l-4-2.64c-11.62-7.79-23.62-15.83-35-24.34-4.24-3.18-8.39-6.59-12.49-10A16.4,16.4,0,0,0,443,1558.56a533.49,533.49,0,0,1-73-79.43c-.74-1-1.42-2.11-2.17-3.15a29.63,29.63,0,0,0-6.27-54.39c6.66-23.93,15.81-48.94,28.71-78.35a19.57,19.57,0,0,0,.74-2.11l.35-.9a13.83,13.83,0,0,0,.7-1.25c12.63-27.64,27-56.92,46.49-83.77,1.79-2.45,3.48-5,5.19-7.52,1.08-1.6,2.17-3.2,3.28-4.78a29.64,29.64,0,0,0,49.77-21.8c0-.16,0-.3,0-.46l7.2,0c21.05.11,42.82.22,64.09,1.77,44.69,3.26,83.91,10.64,119.9,22.57,1.95.65,3.78,1.27,5.54,1.88a29.68,29.68,0,0,0,36.17,40.19c1.35,3.45,2.71,6.9,3.94,10.37,7.84,21.94,13.6,44.8,18.33,65.86a16.42,16.42,0,0,0,5.45,31.45c2.11,22.54,3.69,58.88,4.56,84.35a29.63,29.63,0,0,0-18.65,46.17c-12.77,10.37-26.69,20.45-41.76,30.38a16.39,16.39,0,0,0-13.11-6.6m-275,151.66a16.28,16.28,0,0,0-8.17,2.25c-18.87-26.53-32.54-53.22-41.6-81.38-2.17-6.73-4.18-13.77-6.08-21a16.45,16.45,0,0,0-5.73-31.88c-.43,0-.82.1-1.25.13a233.48,233.48,0,0,1-3.24-42.09c.28-15.42,1.33-30.79,2.63-47.25a30.47,30.47,0,0,0,3.4.22,29.68,29.68,0,0,0,11-2.12c.87,1.25,1.69,2.55,2.6,3.77a536.24,536.24,0,0,0,73.24,79.78,16.36,16.36,0,0,0,6,25.72L415.8,1701a16.56,16.56,0,0,0-2.36-.24M291.08,1309.39a16.35,16.35,0,0,0-3.2-9.7q8.26-7.24,17-13.88A311.1,311.1,0,0,1,341,1262.37a16.4,16.4,0,0,0,29.27-14.07L373,1247a75.45,75.45,0,0,1,9.81-4c11.57-3.61,23.79-7.33,36.23-10.67q6.22-1.69,12.5-3.2c2.18-.54,4.4-1,6.62-1.44a29.66,29.66,0,0,0,6.14,12.44c-1.28,1.8-2.52,3.64-3.74,5.46-1.69,2.5-3.37,5-5.13,7.41-19.68,27.12-34.16,56.59-46.87,84.42a5.18,5.18,0,0,1-.47.81l-.74,1.8a15.6,15.6,0,0,1-.6,1.71c-13,29.66-22.24,54.89-29,79.07a28.85,28.85,0,0,0-17.24,2.56l-56.37-100.64a16.4,16.4,0,0,0,6.84-13.31m295.77-181.84a16.36,16.36,0,0,0,24-1c1.19.81,2.37,1.58,3.53,2.41a290.12,290.12,0,0,1,30.85,25.47,16.26,16.26,0,0,0-3.12,9.58,16.48,16.48,0,0,0,16.48,16.48,16.28,16.28,0,0,0,8.9-2.64,301.79,301.79,0,0,1,25.8,35.35c4.16,6.63,8,13.6,11.65,20.56a29.92,29.92,0,0,0-9.59,9.77c-1.93-.68-4-1.38-6.14-2.11-36.28-12-75.81-19.47-120.82-22.75-21.4-1.55-43.23-1.68-64.33-1.79l-7.55,0a29.49,29.49,0,0,0-5-12.76Zm222.7,328.31c-.71.92-10.1,11.3-25.29,27.89a29.5,29.5,0,0,0-16.68-5.13c-.62,0-1.2,0-1.8.08-.89-25.41-2.47-61.4-4.56-84A16.46,16.46,0,0,0,775,1378.44a.7.7,0,0,1,0-.08l67.42-8.18a16.44,16.44,0,0,0,7.3,10.54c-.22.55-.43,1.12-.65,1.66-6.81,16.72-15.29,33.13-22.7,47.2a201.76,201.76,0,0,1-12,19c-1.65,2.42-3.29,4.84-4.89,7.27M787.91,1080l-58.31,150.6a29.63,29.63,0,0,0-21.35,1.39c-3.69-7-7.55-14-11.76-20.77a306.59,306.59,0,0,0-26.09-35.73,16.37,16.37,0,0,0,3.21-18.09l109.93-80.71a16.59,16.59,0,0,0,4.37,3.31m-428.37,8.21-6.25,148.46a16.44,16.44,0,0,0-12,6.65L203.51,1165a11.63,11.63,0,0,0,.32-2.58,11.49,11.49,0,0,0-1.09-4.84c1.08-1,2.18-1.95,3.28-2.93,6.58-6,13.39-12.09,20.53-17.48,34.25-25.88,69-43.78,106.21-54.74,4.86-1.43,9.59-2.71,14.28-3.91a16.5,16.5,0,0,0,12.5,9.64M202,1168.55l137.3,78a16.21,16.21,0,0,0-.14,12.44,313.3,313.3,0,0,0-36.61,23.79c-5.94,4.48-11.71,9.21-17.32,14.14a16.4,16.4,0,0,0-23.44,22.78,330.69,330.69,0,0,0-21.54,25.69A309.26,309.26,0,0,0,208.75,1397a16.59,16.59,0,0,0-4.46-.9l-11.57-222.21a11.49,11.49,0,0,0,9.32-5.37M203.23,1429a16.46,16.46,0,0,0,9-30.3,303.62,303.62,0,0,1,31.14-51,327.42,327.42,0,0,1,21.23-25.34,16.31,16.31,0,0,0,10.05,3.51,16.5,16.5,0,0,0,6.33-1.27l56.35,100.59a29.63,29.63,0,0,0,9,53.64c-1.33,16.67-2.39,32.23-2.68,47.87a235.24,235.24,0,0,0,3.31,42.9,16.54,16.54,0,0,0-8.2,5.83l-141-81.47a16.71,16.71,0,0,0,1.36-6.54,16.45,16.45,0,0,0-12.38-15.91,118.48,118.48,0,0,1,3.43-15c3.1-10.1,6.25-19.33,9.47-28a17,17,0,0,0,3.62.43m-23.59,107.18c.25-4.35.59-8.72.95-13.07.55-6.41,1.25-12.82,2-19.19h0a16.41,16.41,0,0,0,13.19-6.68l141,81.47a16.35,16.35,0,0,0,1.2,15.32L222.18,1687.5a11.07,11.07,0,0,0-9.67-1.66c-.78-1.87-1.58-3.72-2.42-5.54a313.14,313.14,0,0,1-22.65-67.8c-3.15-15.23-5-30.58-6.24-42.25-1.36-12.79-2.15-23.49-1.55-34.1m239.84,165.78,30.38-114a15.89,15.89,0,0,0,2.88.29,16.39,16.39,0,0,0,12.13-5.4c4.07,3.43,8.18,6.81,12.43,10,11.4,8.58,23.46,16.65,35.11,24.46l4.24,2.83a29.64,29.64,0,0,0,52.3,27.76c9.92,4.18,20.67,8.5,31.66,12.38a257.4,257.4,0,0,0,59.58,13.3c3.86.4,7.85.78,11.87,1.11a16.39,16.39,0,0,0,.87,4.51l-183.77,88.14a16.38,16.38,0,0,0-25.77-2.61c-2.93-2.31-5.87-4.64-8.79-7.06a248.67,248.67,0,0,1-29.32-29,16.43,16.43,0,0,0-5.79-26.74m550.42-194.62a16.46,16.46,0,0,0-16.16,13.33l-156.52-12.17v-.19a29.56,29.56,0,0,0-9.94-22.13C800,1472.24,812,1459,812.71,1458q2.4-3.63,4.88-7.23a205.94,205.94,0,0,0,12.17-19.39c7.46-14.15,16-30.66,22.86-47.55.19-.48.36-1,.55-1.44a16.25,16.25,0,0,0,5.41,1,16.44,16.44,0,0,0,15.69-11.65l130.32,24.08c0,.06,0,.13,0,.19a11.53,11.53,0,0,0,9.24,11.3A338.72,338.72,0,0,1,976,1508.54a16.22,16.22,0,0,0-6.14-1.22m49.26-196.53a369,369,0,0,1-1.74,73.76,12.33,12.33,0,0,0-1.31-.13,11.52,11.52,0,0,0-10.81,7.61L875,1367.94c0-.36.11-.71.11-1.08a16.44,16.44,0,0,0-12-15.78c1.71-6.92,3.24-14.2,4.62-21.92,3.77-21.24,5.43-38.48,5.21-54.28-.22-16.21-1.79-32.35-3.29-46-.27-2.45-.59-4.92-.93-7.41,0-.1,0-.17,0-.25-.35-2.41-.73-4.83-1.17-7.27l-.09-.57c-.43-2.34-.87-4.7-1.38-7.07,0-.27-.11-.54-.17-.81-.49-2.3-1-4.62-1.57-7l-.19-.76a16.38,16.38,0,0,0,8.88-7.52l121.46,49.81a12.3,12.3,0,0,0-.22,2.31,11.54,11.54,0,0,0,11.52,11.54,11.33,11.33,0,0,0,3.89-.73,346.17,346.17,0,0,1,9.58,57.6M766.25,996.91c12.44,3.83,22.41,7.34,31.39,11.07a350.54,350.54,0,0,1,62.7,33.78,367.81,367.81,0,0,1,103.22,105.48,360.73,360.73,0,0,1,39.73,83.86,11.48,11.48,0,0,0-7.49,5.43L874.4,1186.72a16.29,16.29,0,0,0,.68-4.42,16.33,16.33,0,0,0-20.37-16l0-.11c-.08-.22-.14-.44-.22-.66-.93-2.64-2-5.26-3-7.87-.81-2.15-1.57-4.32-2.44-6.47-1.14-2.8-2.41-5.57-3.62-8.36-.93-2.14-1.82-4.27-2.79-6.39-1.06-2.28-2.23-4.51-3.36-6.77-1.25-2.57-2.47-5.14-3.8-7.68-1.2-2.29-2.52-4.53-3.77-6.79s-2.49-4.61-3.81-6.87c-.08-.14-.17-.27-.25-.41a1.47,1.47,0,0,0-.16-.27c-.92-1.58-1.85-3.09-2.77-4.62-.47-.77-.95-1.58-1.42-2.36-.95-1.52-1.88-3-2.82-4.45-.54-.85-1.09-1.76-1.63-2.6-.89-1.36-1.76-2.66-2.64-4l-1.77-2.66c-.82-1.22-1.66-2.37-2.49-3.55-.65-.92-1.3-1.87-1.95-2.75-.78-1.08-1.55-2.11-2.33-3.17-.13-.16-.25-.32-.36-.47a16.46,16.46,0,0,0-21.35-24.92c-1.08-1.12-2.12-2.28-3.21-3.4-9.32-9.58-19-18.79-28.87-27.45-10.84-9.51-22.76-17.81-34-25.34-5.29-3.55-10.8-6.79-16.29-10a11.4,11.4,0,0,0,.66-3.39c8,1.11,16.21,2.31,24.16,3.94,12.81,2.64,25.58,6.59,37.94,10.38m-101.05-25c4.86,2,9.72,3.94,14.59,5.86l2,.74a11.27,11.27,0,0,0-.63,3.59,11.49,11.49,0,0,0,20.5,7.19c5.43,3.13,10.86,6.33,16,9.8,11.18,7.47,23,15.67,33.67,25,10.94,9.59,21.57,19.86,31.8,30.6a16.11,16.11,0,0,0-1.82,18.82l-109.68,80.52a16.4,16.4,0,0,0-13.07-6.55,17.06,17.06,0,0,0-3.61.43L587.48,955.35A11.49,11.49,0,0,0,592.8,949a284.91,284.91,0,0,1,40.11,10.48c10.89,3.74,21.78,8.15,32.29,12.43M205.13,1139.28a358.7,358.7,0,0,1,65.36-89,367.77,367.77,0,0,1,194.1-101.53,357.5,357.5,0,0,1,83.43-5q11.49.62,22.41,1.87a11.44,11.44,0,0,0,3.15,7.55l-77.93,103.46a16.37,16.37,0,0,0-22,11c-7.23-1-14.67-1.85-22.41-2.47-8.82-.71-17.55-.87-25.71-.76s-16,.54-22.57,1c-8.12.52-16.38,1.46-24.84,2.77a16.45,16.45,0,0,0-32.2,6.71c-4.69,1.19-9.42,2.47-14.26,3.89-37.67,11.08-72.81,29.19-107.43,55.34-7.27,5.49-14.15,11.71-20.78,17.71l-2.9,2.57a12.22,12.22,0,0,0-1.92-1.58c2.07-4.53,4.19-9.1,6.47-13.53M98.25,1340.56a347.37,347.37,0,0,1,21.61-66.39A351,351,0,0,1,187,1173l.24-.28a12.24,12.24,0,0,0,1.65.65l11.62,222.9a16.4,16.4,0,0,0-4.46,31c-3.24,8.74-6.39,18-9.53,28.18a124.54,124.54,0,0,0-3.56,15.53c-.11,0-.22,0-.35,0a16.47,16.47,0,0,0-15.24,10.26l-64.49-17.95A10.25,10.25,0,0,0,103,1462a11.54,11.54,0,0,0-11.38-11.52c-.7-7.82-1.23-15.72-1.46-23.78a362.38,362.38,0,0,1,8.1-86.16m80.43,316.17c-13.63-15-26.4-32.88-39.08-54.75A368,368,0,0,1,97,1489c-1-5.18-1.93-10.45-2.74-15.78a11.57,11.57,0,0,0,7.65-6.28l64.49,18a16.73,16.73,0,0,0-.25,2.55,16.46,16.46,0,0,0,12.68,16c-1.23,10.8-2.33,21.69-2.94,32.53s.17,21.75,1.57,34.73c1.25,11.75,3.1,27.21,6.3,42.61a317.21,317.21,0,0,0,22.9,68.62c.84,1.82,1.63,3.66,2.41,5.51l-.13.11-4.21-4.15.06.11-.33-.33c-8.6-8.52-17.49-17.33-25.74-26.42m119.48,141.61a335.82,335.82,0,0,1-60.44-69c-4.91-7.5-9.62-15.32-14.18-22.87l-.49-.81a11.53,11.53,0,0,0,3.8-6.36L397,1717.4a16.46,16.46,0,0,0,13,16L399,1851a11.5,11.5,0,0,0-9,5.57,361.87,361.87,0,0,1-91.78-58.27m190.45,86A361.14,361.14,0,0,1,411,1865.13a12.08,12.08,0,0,0,.33-2.64,11.52,11.52,0,0,0-8.58-11.11l11-117.69a16.37,16.37,0,0,0,8.53-2.61,252.58,252.58,0,0,0,29.82,29.51c3,2.47,6,4.84,8.94,7.19a16.28,16.28,0,0,0-2.34,8.34,16.48,16.48,0,0,0,16.49,16.48,16.06,16.06,0,0,0,2.91-.3l26.36,86.89a11.54,11.54,0,0,0-5.68,6.38c-3.37-.36-6.76-.74-10.23-1.2m170.19-17.78c-23.55,8.2-45.22,13.66-66.26,16.68-13.28,1.92-26.45,2.85-41.06,3.77a279,279,0,0,1-30.53.24,11.52,11.52,0,0,0-11.32-9.32,11.08,11.08,0,0,0-1.46.14l-26.36-86.87a16.38,16.38,0,0,0,5.78-4.31c2.66,1.74,5.3,3.48,7.93,5.11,17.38,10.72,33.08,18.85,48,24.85,19.56,7.85,40.27,13.39,56.11,17.35,12.17,3,24.9,4.46,37.21,5.84l4.61.52c2.66.32,5.24.57,7.76.79l2.25.16c1.79.14,3.56.29,5.29.38.78,0,1.52.06,2.26.11l5,.17c.74,0,1.49,0,2.22,0s1.58,0,2.34,0c1.23,0,2.44,0,3.64,0,13.11-.25,26.37-1.23,39.21-2.18l4.26-.32c.35,0,.68-.1,1-.13.11.25.27.49.4.74-21.05,11.33-39.79,19.77-58.31,26.23m281.52-154.38a72.34,72.34,0,0,1-6,6.63c-1.17,1.2-2.34,2.41-3.47,3.66s-2,2.33-3,3.51a59.6,59.6,0,0,1-5.43,5.94c-10.21,9.28-20.78,18.5-31,27.43-13.25,11.57-28.22,21-42.41,29.71a314.28,314.28,0,0,1-88.83,37.51c-7.27,1.79-14.74,3.32-22,4.8a11.49,11.49,0,0,0-5.13-6.24l55.43-148.22a16.11,16.11,0,0,0,3.94.52A16.48,16.48,0,0,0,808.94,1661a16,16,0,0,0-.7-4.46q10.61-4,21.29-8.83a16.37,16.37,0,0,0,28.32-.33l91.46,39.1a11.33,11.33,0,0,0-.71,3.89,11.46,11.46,0,0,0,2.6,7.22c-3.59,4.91-7.19,9.81-10.87,14.64m85.22-214.88a314.37,314.37,0,0,1-5.76,46.28c-3.55,17.33-8.69,34.7-13.74,50.89a261.32,261.32,0,0,1-13.76,35.9c-7.46,15.48-16.37,33.18-27.92,49.23a11.37,11.37,0,0,0-13.17,3.5l-91.86-39.27a16.26,16.26,0,0,0,.74-4.65,16.64,16.64,0,0,0-1.35-6.54,323.18,323.18,0,0,0,46.77-33.15q3.63-3.09,7.15-6.25a333.39,333.39,0,0,0,44.48-48.71c1.58-2.12,3.12-4.29,4.65-6.47a16.23,16.23,0,0,0,8.1,2.22,16.46,16.46,0,0,0,9.48-29.93c2.07-3.64,4.08-7.31,6-11.07q7.5-14.44,13.76-29.81c1.92-4.72,3.7-9.53,5.43-14.4.25-.73.52-1.46.78-2.18q2.35-6.89,4.46-14c.32-1.06.62-2.14.93-3.21,1.31-4.61,2.56-9.29,3.72-14.09.32-1.23.59-2.52.89-3.77.79-3.45,1.57-6.95,2.28-10.49a13.24,13.24,0,0,0,1.82-.4c1.09,5.79,2.17,11.68,3.07,17.54a205.17,205.17,0,0,1,2.53,24l.21,6.09c.49,14,1,28.57.25,42.75" transform="translate(-79.91 -933.74)"/></svg>